<?xml version="1.0" encoding="UTF-8"?>
<svg width="26px" height="20px" viewBox="0 0 26 20" version="1.1" xmlns="http://www.w3.org/2000/svg" xmlns:xlink="http://www.w3.org/1999/xlink">
    <!-- Generator: Sketch 46.2 (44496) - http://www.bohemiancoding.com/sketch -->
    <title>Group 23</title>
    <desc>Created with Sketch.</desc>
    <defs>
        <rect id="path-1" x="0" y="0" width="24" height="17.1399994" rx="2"></rect>
        <filter x="-6.2%" y="-8.8%" width="112.5%" height="117.5%" filterUnits="objectBoundingBox" id="filter-3">
            <feOffset dx="0" dy="0" in="SourceAlpha" result="shadowOffsetOuter1"></feOffset>
            <feGaussianBlur stdDeviation="0.5" in="shadowOffsetOuter1" result="shadowBlurOuter1"></feGaussianBlur>
            <feColorMatrix values="0 0 0 0 0   0 0 0 0 0   0 0 0 0 0  0 0 0 0.15 0" type="matrix" in="shadowBlurOuter1"></feColorMatrix>
        </filter>
    </defs>
    <g id="Country-code" stroke="none" stroke-width="1" fill="none" fill-rule="evenodd">
        <g id="Artboard" transform="translate(-125.000000, -502.000000)">
            <g id="Group-23" transform="translate(126.000000, 500.000000)">
                <rect id="Rectangle-7-Copy" x="0" y="0" width="24" height="24"></rect>
                <g id="Group-2" transform="translate(0.000000, 3.000000)">
                    <g id="Group-21">
                        <mask id="mask-2" fill="white">
                            <use xlink:href="#path-1"></use>
                        </mask>
                        <g id="Mask">
                            <use fill="black" fill-opacity="1" filter="url(#filter-3)" xlink:href="#path-1"></use>
                            <use fill="#D8D8D8" fill-rule="evenodd" xlink:href="#path-1"></use>
                        </g>
                        <g mask="url(#mask-2)">
                            <polygon id="Fill-16144" fill="#292764" points="0 18 25 18 25 0 0 0"></polygon>
                            <polyline id="Fill-16145" fill="#FFFFFE" points="6.85268626 10.8709677 7.25519458 11.8899223 8.47132935 11.5108312 7.75384571 12.4008712 8.87096774 12.9465505 7.57519229 13.0389687 7.75384571 14.0967742 6.85268626 13.323287 5.95870164 14.0967742 6.13735507 13.0389687 4.83870968 12.9465505 5.95870164 12.4008712 5.23763058 11.5108312 6.45735277 11.8899223 6.85268626 10.8709677"></polyline>
                            <polyline id="Fill-16146" fill="#FFFFFE" points="19.3515225 12.483871 19.5143202 12.9930787 20.0009044 12.8045977 19.7138981 13.2495365 20.1612903 13.5220615 19.6397347 13.5684093 19.7138981 14.0967742 19.3515225 13.7093066 18.9951764 14.0967742 19.0669279 13.5684093 18.5483871 13.5220615 18.9951764 13.2495365 18.70817 12.8045977 19.1953573 12.9930787 19.3515225 12.483871"></polyline>
                            <polyline id="Fill-16147" fill="#FFFFFE" points="16.1299367 7.64516129 16.2885137 8.15394602 16.7757009 7.96415633 16.4886946 8.41050211 16.9354839 8.68313159 16.416943 8.72764253 16.4886946 9.25806452 16.1299367 8.87044845 15.7693699 9.25806452 15.8417244 8.72764253 15.3225806 8.68313159 15.7693699 8.41050211 15.4823636 7.96415633 15.9695508 8.15394602 16.1299367 7.64516129"></polyline>
                            <polyline id="Fill-16148" fill="#FFFFFE" points="19.3515225 2.41935484 19.5143202 2.9289531 20.0009044 2.73970908 19.7138981 3.18437067 20.1612903 3.45772313 19.6397347 3.50410647 19.7138981 4.03225806 19.3515225 3.6463487 18.9951764 4.03225806 19.0669279 3.50410647 18.5483871 3.45772313 18.9951764 3.18437067 18.70817 2.73970908 19.1953573 2.9289531 19.3515225 2.41935484"></polyline>
                            <polyline id="Fill-16149" fill="#FFFFFE" points="22.5803439 4.83870968 22.7382 5.3468762 23.2286382 5.15770472 22.9376288 5.60343229 23.3870968 5.87420715 22.8659308 5.92180912 22.9406413 6.4516129 22.5803439 6.06337863 22.221854 6.4516129 22.293552 5.92180912 21.7741935 5.87420715 22.221854 5.60343229 21.9350621 5.15770472 22.4218854 5.3468762 22.5803439 4.83870968"></polyline>
                            <polyline id="Fill-16150" fill="#FFFFFE" points="20.5645161 9.25806452 20.6763172 9.54393771 20.9677419 9.56618465 20.7446696 9.7647386 20.8135518 10.0645161 20.5645161 9.90100111 20.3170701 10.0645161 20.3854224 9.7647386 20.1612903 9.56618465 20.4543046 9.54393771 20.5645161 9.25806452"></polyline>
                            <polyline id="Fill-16151" fill="#FFFFFE" points="5.95892397 0 5.95892397 2.37251881 0 2.37251881 0 4.74503761 5.95892397 4.74503761 5.95892397 7.1168157 8.33892133 7.1168157 8.33892133 4.74503761 14.3008222 4.74503761 14.3008222 2.37251881 8.33892133 2.37251881 8.33892133 0 5.95892397 0"></polyline>
                            <polyline id="Fill-16152" fill="#FFFFFE" points="0 0 0 0.795530814 12.7034057 7.1168157 14.3008222 7.1168157 14.3008222 6.32128489 1.59890516 0 0 0"></polyline>
                            <polyline id="Fill-16153" fill="#FFFFFE" points="12.7034057 0 0 6.32128489 0 7.1168157 1.59890516 7.1168157 14.3008222 0.795530814 14.3008222 0 12.7034057 0"></polyline>
                            <polyline id="Fill-16154" fill="#D5232B" points="6.43432786 0 6.43432786 2.84657814 0 2.84657814 0 4.27023756 6.43432786 4.27023756 6.43432786 7.1168157 7.8642612 7.1168157 7.8642612 4.27023756 14.3008222 4.27023756 14.3008222 2.84657814 7.8642612 2.84657814 7.8642612 0 6.43432786 0"></polyline>
                            <path d="M13.2348854,0 L8.46868904,2.66880589 L9.53462581,2.66880589 L14.3008222,0 L13.2348854,0 Z M0,0 L0,0.597419239 L3.69802647,2.66880589 L4.76768509,2.66880589 L0,0 L0,0 Z" id="Fill-16155" fill="#D5232B"></path>
                            <path d="M9.53264108,4.44800981 L14.3008222,7.1168157 L14.3008222,6.52004337 L10.5991002,4.44800981 L9.53264108,4.44800981 Z M4.76669265,4.44800981 L0,7.1168157 L1.06571489,7.1168157 L5.83240754,4.44800981 L4.76669265,4.44800981 L4.76669265,4.44800981 Z" id="Fill-16156" fill="#D5232B"></path>
                        </g>
                    </g>
                </g>
            </g>
        </g>
    </g>
</svg>